<svg width="36" height="35" viewBox="0 0 36 35" fill="none" xmlns="http://www.w3.org/2000/svg">
    <path fill-rule="evenodd" fill="#97979F" clip-rule="evenodd"
        d="M17.9986 0C13.7242 0.000875815 9.58961 1.51777 6.33454 4.2793C3.07948 7.04082 0.916342 10.8668 0.232158 15.0726C-0.452026 19.2784 0.387383 23.5897 2.60021 27.2351C4.81303 30.8805 8.25487 33.622 12.3099 34.9693C13.2103 35.1336 13.5388 34.5804 13.5388 34.1046C13.5388 33.6786 13.5232 32.5505 13.5143 31.0525C8.50751 32.1376 7.45111 28.6481 7.45111 28.6481C6.63229 26.5753 5.45204 26.0233 5.45204 26.0233C3.81778 24.9096 5.5759 24.9328 5.5759 24.9328C7.38263 25.0592 8.33292 26.781 8.33292 26.781C9.93928 29.5238 12.5462 28.7316 13.5718 28.2723C13.6535 27.3626 14.0582 26.512 14.7131 25.8733C10.7163 25.4208 6.51224 23.8819 6.51224 17.0053C6.48633 15.2226 7.14998 13.4985 8.36547 12.1906C8.17989 11.7368 7.56229 9.91261 8.54217 7.44205C8.54217 7.44205 10.0526 6.95956 13.4914 9.28138C16.4414 8.47656 19.554 8.47656 22.504 9.28138C25.9407 6.95956 27.4499 7.44205 27.4499 7.44205C28.4323 9.91261 27.8147 11.7368 27.6299 12.1906C28.8453 13.4983 29.5079 15.2229 29.4798 17.0053C29.4798 23.8983 25.2707 25.4153 21.2607 25.859C21.9071 26.4131 22.4828 27.5091 22.4828 29.182C22.4828 31.5809 22.4608 33.5164 22.4608 34.1046C22.4608 34.5837 22.7855 35.1421 23.6986 34.9672C27.7525 33.618 31.1926 30.8751 33.4037 27.2293C35.6147 23.5834 36.4524 19.2723 35.7669 15.0672C35.0814 10.862 32.9175 7.03715 29.6621 4.2767C26.4068 1.51624 22.2724 0.000290347 17.9986 0Z" />
</svg>