<svg width="44" height="35" viewBox="0 0 44 35" fill="none" xmlns="http://www.w3.org/2000/svg">
<g clip-path="url(#clip0)">
<path d="M32.7189 1.19373H11.2234C7.66332 1.19373 4.7749 3.96955 4.7749 7.39077V28.047C4.7749 31.469 7.66332 34.2441 11.2234 34.2441H32.7189C36.279 34.2441 39.1674 31.4682 39.1674 28.047V7.39077C39.1674 3.96955 36.279 1.19373 32.7189 1.19373ZM15.4098 29.2487H10.0671L10.0361 13.8755H15.378L15.4098 29.2487ZM12.603 11.8645H12.5739C10.8275 11.8645 9.70102 10.7073 9.70102 9.26771C9.70102 7.79306 10.8637 6.67573 12.6412 6.67573C14.4186 6.67573 15.5089 7.79306 15.5459 9.26771C15.5431 10.7077 14.4115 11.8645 12.603 11.8645ZM33.9333 29.2487H28.544V20.8966C28.544 18.8756 27.9869 17.5 26.1052 17.5C25.5376 17.4962 24.9831 17.6705 24.5196 17.9982C24.0562 18.326 23.7071 18.7908 23.5216 19.3272C23.3858 19.7179 23.3262 20.131 23.3461 20.5441V29.2487H17.9306L17.8995 13.8755H23.3147L23.3457 16.0453C24.0381 15.0175 25.1904 13.5627 27.9495 13.5627C31.3715 13.5627 33.9281 15.7079 33.9281 20.3208V29.2487H33.9333Z" fill="#E5E5E5"/>
</g>
<defs>
<clipPath id="clip0">
<rect width="43.3721" height="34.2202" fill="white"/>
</clipPath>
</defs>
</svg>
